<mxfile host="app.diagrams.net" modified="2024-05-07T14:24:33.122Z" agent="Mozilla/5.0 (X11; Linux x86_64) AppleWebKit/537.36 (KHTML, like Gecko) Chrome/123.0.0.0 Safari/537.36 OPR/109.0.0.0" etag="nK-w6g5Ehuxsk-YSMrXq" version="24.2.7" type="device">
  <diagram name="Page-1" id="vQK37tlVbIWJRqgLQUT4">
    <mxGraphModel dx="1364" dy="840" grid="1" gridSize="10" guides="1" tooltips="1" connect="1" arrows="1" fold="1" page="1" pageScale="1" pageWidth="1169" pageHeight="827" math="0" shadow="0">
      <root>
        <mxCell id="0" />
        <mxCell id="1" parent="0" />
        <mxCell id="eA9wci_QhcoB31TBnbEu-33" value="" style="group" parent="1" vertex="1" connectable="0">
          <mxGeometry x="30" y="50" width="110" height="30" as="geometry" />
        </mxCell>
        <mxCell id="eA9wci_QhcoB31TBnbEu-31" value="" style="group" parent="eA9wci_QhcoB31TBnbEu-33" vertex="1" connectable="0">
          <mxGeometry width="110" height="30" as="geometry" />
        </mxCell>
        <mxCell id="eA9wci_QhcoB31TBnbEu-23" value="" style="shape=image;verticalLabelPosition=bottom;labelBackgroundColor=default;verticalAlign=top;aspect=fixed;imageAspect=0;image=https://upload.wikimedia.org/wikipedia/commons/thumb/c/c3/Python-logo-notext.svg/1869px-Python-logo-notext.svg.png;" parent="eA9wci_QhcoB31TBnbEu-31" vertex="1">
          <mxGeometry y="8.079999999999984" width="20" height="21.92" as="geometry" />
        </mxCell>
        <mxCell id="eA9wci_QhcoB31TBnbEu-29" value="&lt;span style=&quot;text-align: left; text-wrap: nowrap; color: rgba(0, 0, 0, 0); font-family: monospace; font-size: 0px;&quot;&gt;%3CmxGraphModel%3E%3Croot%3E%3CmxCell%20id%3D%220%22%2F%3E%3CmxCell%20id%3D%221%22%20parent%3D%220%22%2F%3E%3CmxCell%20id%3D%222%22%20value%3D%22%22%20style%3D%22shape%3Dimage%3BverticalLabelPosition%3Dbottom%3BlabelBackgroundColor%3Ddefault%3BverticalAlign%3Dtop%3Baspect%3Dfixed%3BimageAspect%3D0%3Bimage%3Dhttps%3A%2F%2Fupload.wikimedia.org%2Fwikipedia%2Fcommons%2Fthumb%2Fc%2Fc3%2FPython-logo-notext.svg%2F1869px-Python-logo-notext.svg.png%3B%22%20vertex%3D%221%22%20parent%3D%221%22%3E%3CmxGeometry%20x%3D%2270%22%20y%3D%22214.04000000000002%22%20width%3D%2220%22%20height%3D%2221.92%22%20as%3D%22geometry%22%2F%3E%3C%2FmxCell%3E%3C%2Froot%3E%3C%2FmxGraphModel%3E&lt;/span&gt;&lt;span style=&quot;text-align: left; text-wrap: nowrap; color: rgba(0, 0, 0, 0); font-family: monospace; font-size: 0px;&quot;&gt;%3CmxGraphModel%3E%3Croot%3E%3CmxCell%20id%3D%220%22%2F%3E%3CmxCell%20id%3D%221%22%20parent%3D%220%22%2F%3E%3CmxCell%20id%3D%222%22%20value%3D%22%22%20style%3D%22shape%3Dimage%3BverticalLabelPosition%3Dbottom%3BlabelBackgroundColor%3Ddefault%3BverticalAlign%3Dtop%3Baspect%3Dfixed%3BimageAspect%3D0%3Bimage%3Dhttps%3A%2F%2Fupload.wikimedia.org%2Fwikipedia%2Fcommons%2Fthumb%2Fc%2Fc3%2FPython-logo-notext.svg%2F1869px-Python-logo-notext.svg.png%3B%22%20vertex%3D%221%22%20parent%3D%221%22%3E%3CmxGeometry%20x%3D%2270%22%20y%3D%22214.04000000000002%22%20width%3D%2220%22%20height%3D%2221.92%22%20as%3D%22geometry%22%2F%3E%3C%2FmxCell%3E%3C%2Froot%3E%3C%2FmxGraphModel%3E&lt;/span&gt;&lt;span style=&quot;text-align: left; font-size: 15px;&quot;&gt;parse_dataset.py&lt;/span&gt;" style="text;html=1;align=center;verticalAlign=middle;whiteSpace=wrap;rounded=0;" parent="eA9wci_QhcoB31TBnbEu-33" vertex="1">
          <mxGeometry x="50" width="60" height="30" as="geometry" />
        </mxCell>
        <mxCell id="eA9wci_QhcoB31TBnbEu-93" style="edgeStyle=orthogonalEdgeStyle;rounded=0;orthogonalLoop=1;jettySize=auto;html=1;" parent="1" source="eA9wci_QhcoB31TBnbEu-34" target="eA9wci_QhcoB31TBnbEu-46" edge="1">
          <mxGeometry relative="1" as="geometry" />
        </mxCell>
        <mxCell id="eA9wci_QhcoB31TBnbEu-34" value="&lt;span style=&quot;font-size: 15px;&quot;&gt;1. Load dataset&lt;/span&gt;" style="swimlane;whiteSpace=wrap;html=1;startSize=23;" parent="1" vertex="1">
          <mxGeometry x="10" y="20" width="195" height="160" as="geometry" />
        </mxCell>
        <mxCell id="eA9wci_QhcoB31TBnbEu-35" value="&lt;div&gt;--dataset_name&lt;/div&gt;&lt;div&gt;--min_images_per_identity&lt;/div&gt;&lt;div&gt;&lt;br&gt;&lt;/div&gt;&lt;div&gt;Creates&amp;nbsp;&lt;span style=&quot;background-color: initial;&quot;&gt;df_dataset_full.parquet&lt;/span&gt;&lt;/div&gt;&lt;div&gt;&lt;span style=&quot;background-color: initial;&quot;&gt;Creates&amp;nbsp;&lt;/span&gt;df_dataset.parquet&lt;/div&gt;" style="text;html=1;align=left;verticalAlign=top;whiteSpace=wrap;rounded=0;" parent="eA9wci_QhcoB31TBnbEu-34" vertex="1">
          <mxGeometry x="5" y="70" width="190" height="120" as="geometry" />
        </mxCell>
        <mxCell id="eA9wci_QhcoB31TBnbEu-94" style="edgeStyle=orthogonalEdgeStyle;rounded=0;orthogonalLoop=1;jettySize=auto;html=1;" parent="1" source="eA9wci_QhcoB31TBnbEu-46" target="eA9wci_QhcoB31TBnbEu-53" edge="1">
          <mxGeometry relative="1" as="geometry" />
        </mxCell>
        <mxCell id="eA9wci_QhcoB31TBnbEu-95" style="edgeStyle=orthogonalEdgeStyle;rounded=0;orthogonalLoop=1;jettySize=auto;html=1;entryX=0;entryY=0.5;entryDx=0;entryDy=0;" parent="1" source="eA9wci_QhcoB31TBnbEu-46" target="eA9wci_QhcoB31TBnbEu-71" edge="1">
          <mxGeometry relative="1" as="geometry" />
        </mxCell>
        <mxCell id="eA9wci_QhcoB31TBnbEu-97" style="edgeStyle=orthogonalEdgeStyle;rounded=0;orthogonalLoop=1;jettySize=auto;html=1;" parent="1" source="eA9wci_QhcoB31TBnbEu-53" target="eA9wci_QhcoB31TBnbEu-65" edge="1">
          <mxGeometry relative="1" as="geometry" />
        </mxCell>
        <mxCell id="eA9wci_QhcoB31TBnbEu-53" value="&lt;span style=&quot;font-size: 15px;&quot;&gt;3. Run recognition models&lt;/span&gt;" style="swimlane;whiteSpace=wrap;html=1;startSize=23;" parent="1" vertex="1">
          <mxGeometry x="525" y="20" width="250" height="230" as="geometry" />
        </mxCell>
        <mxCell id="eA9wci_QhcoB31TBnbEu-54" value="&lt;div&gt;&lt;div&gt;--dataset_name&lt;/div&gt;&lt;div&gt;--path_cropped_imgs&lt;/div&gt;&lt;/div&gt;&lt;div&gt;&lt;br&gt;&lt;/div&gt;&lt;div&gt;Creates&amp;nbsp;&lt;span style=&quot;background-color: initial;&quot;&gt;embeddings_retina_{model}.npz&lt;/span&gt;&lt;/div&gt;" style="text;html=1;align=left;verticalAlign=top;whiteSpace=wrap;rounded=0;" parent="eA9wci_QhcoB31TBnbEu-53" vertex="1">
          <mxGeometry x="20" y="151" width="190" height="120" as="geometry" />
        </mxCell>
        <mxCell id="eA9wci_QhcoB31TBnbEu-79" value="" style="group" parent="eA9wci_QhcoB31TBnbEu-53" vertex="1" connectable="0">
          <mxGeometry x="20" y="121" width="110" height="30" as="geometry" />
        </mxCell>
        <mxCell id="eA9wci_QhcoB31TBnbEu-80" value="" style="group" parent="eA9wci_QhcoB31TBnbEu-79" vertex="1" connectable="0">
          <mxGeometry width="110" height="30" as="geometry" />
        </mxCell>
        <mxCell id="eA9wci_QhcoB31TBnbEu-81" value="" style="shape=image;verticalLabelPosition=bottom;labelBackgroundColor=default;verticalAlign=top;aspect=fixed;imageAspect=0;image=https://upload.wikimedia.org/wikipedia/commons/thumb/c/c3/Python-logo-notext.svg/1869px-Python-logo-notext.svg.png;" parent="eA9wci_QhcoB31TBnbEu-80" vertex="1">
          <mxGeometry y="8.079999999999984" width="20" height="21.92" as="geometry" />
        </mxCell>
        <mxCell id="eA9wci_QhcoB31TBnbEu-82" value="&lt;span style=&quot;text-align: left; text-wrap: nowrap; color: rgba(0, 0, 0, 0); font-family: monospace; font-size: 0px;&quot;&gt;%3CmxGraphModel%3E%3Croot%3E%3CmxCell%20id%3D%220%22%2F%3E%3CmxCell%20id%3D%221%22%20parent%3D%220%22%2F%3E%3CmxCell%20id%3D%222%22%20value%3D%22%22%20style%3D%22shape%3Dimage%3BverticalLabelPosition%3Dbottom%3BlabelBackgroundColor%3Ddefault%3BverticalAlign%3Dtop%3Baspect%3Dfixed%3BimageAspect%3D0%3Bimage%3Dhttps%3A%2F%2Fupload.wikimedia.org%2Fwikipedia%2Fcommons%2Fthumb%2Fc%2Fc3%2FPython-logo-notext.svg%2F1869px-Python-logo-notext.svg.png%3B%22%20vertex%3D%221%22%20parent%3D%221%22%3E%3CmxGeometry%20x%3D%2270%22%20y%3D%22214.04000000000002%22%20width%3D%2220%22%20height%3D%2221.92%22%20as%3D%22geometry%22%2F%3E%3C%2FmxCell%3E%3C%2Froot%3E%3C%2FmxGraphModel%3E&lt;/span&gt;&lt;span style=&quot;text-align: left; text-wrap: nowrap; color: rgba(0, 0, 0, 0); font-family: monospace; font-size: 0px;&quot;&gt;%3CmxGraphModel%3E%3Croot%3E%3CmxCell%20id%3D%220%22%2F%3E%3CmxCell%20id%3D%221%22%20parent%3D%220%22%2F%3E%3CmxCell%20id%3D%222%22%20value%3D%22%22%20style%3D%22shape%3Dimage%3BverticalLabelPosition%3Dbottom%3BlabelBackgroundColor%3Ddefault%3BverticalAlign%3Dtop%3Baspect%3Dfixed%3BimageAspect%3D0%3Bimage%3Dhttps%3A%2F%2Fupload.wikimedia.org%2Fwikipedia%2Fcommons%2Fthumb%2Fc%2Fc3%2FPython-logo-notext.svg%2F1869px-Python-logo-notext.svg.png%3B%22%20vertex%3D%221%22%20parent%3D%221%22%3E%3CmxGeometry%20x%3D%2270%22%20y%3D%22214.04000000000002%22%20width%3D%2220%22%20height%3D%2221.92%22%20as%3D%22geometry%22%2F%3E%3C%2FmxCell%3E%3C%2Froot%3E%3C%2FmxGraphModel&lt;/span&gt;&lt;span style=&quot;text-align: left; font-size: 15px;&quot;&gt;run_facenet&lt;/span&gt;&lt;span style=&quot;font-size: 15px; text-align: left; background-color: initial;&quot;&gt;.py&lt;/span&gt;" style="text;html=1;align=center;verticalAlign=middle;whiteSpace=wrap;rounded=0;" parent="eA9wci_QhcoB31TBnbEu-80" vertex="1">
          <mxGeometry x="40" width="60" height="30" as="geometry" />
        </mxCell>
        <mxCell id="eA9wci_QhcoB31TBnbEu-83" value="&lt;div&gt;--dataset_name&lt;/div&gt;&lt;div&gt;--path_cropped_imgs&lt;/div&gt;&lt;div&gt;--path_model&lt;/div&gt;" style="text;html=1;align=left;verticalAlign=top;whiteSpace=wrap;rounded=0;" parent="eA9wci_QhcoB31TBnbEu-53" vertex="1">
          <mxGeometry x="20" y="60" width="190" height="60" as="geometry" />
        </mxCell>
        <mxCell id="eA9wci_QhcoB31TBnbEu-49" value="" style="group" parent="eA9wci_QhcoB31TBnbEu-53" vertex="1" connectable="0">
          <mxGeometry x="20" y="30" width="110" height="30" as="geometry" />
        </mxCell>
        <mxCell id="eA9wci_QhcoB31TBnbEu-50" value="" style="group" parent="eA9wci_QhcoB31TBnbEu-49" vertex="1" connectable="0">
          <mxGeometry width="110" height="30" as="geometry" />
        </mxCell>
        <mxCell id="eA9wci_QhcoB31TBnbEu-51" value="" style="shape=image;verticalLabelPosition=bottom;labelBackgroundColor=default;verticalAlign=top;aspect=fixed;imageAspect=0;image=https://upload.wikimedia.org/wikipedia/commons/thumb/c/c3/Python-logo-notext.svg/1869px-Python-logo-notext.svg.png;" parent="eA9wci_QhcoB31TBnbEu-50" vertex="1">
          <mxGeometry y="8.079999999999984" width="20" height="21.92" as="geometry" />
        </mxCell>
        <mxCell id="eA9wci_QhcoB31TBnbEu-52" value="&lt;span style=&quot;text-align: left; text-wrap: nowrap; color: rgba(0, 0, 0, 0); font-family: monospace; font-size: 0px;&quot;&gt;%3CmxGraphModel%3E%3Croot%3E%3CmxCell%20id%3D%220%22%2F%3E%3CmxCell%20id%3D%221%22%20parent%3D%220%22%2F%3E%3CmxCell%20id%3D%222%22%20value%3D%22%22%20style%3D%22shape%3Dimage%3BverticalLabelPosition%3Dbottom%3BlabelBackgroundColor%3Ddefault%3BverticalAlign%3Dtop%3Baspect%3Dfixed%3BimageAspect%3D0%3Bimage%3Dhttps%3A%2F%2Fupload.wikimedia.org%2Fwikipedia%2Fcommons%2Fthumb%2Fc%2Fc3%2FPython-logo-notext.svg%2F1869px-Python-logo-notext.svg.png%3B%22%20vertex%3D%221%22%20parent%3D%221%22%3E%3CmxGeometry%20x%3D%2270%22%20y%3D%22214.04000000000002%22%20width%3D%2220%22%20height%3D%2221.92%22%20as%3D%22geometry%22%2F%3E%3C%2FmxCell%3E%3C%2Froot%3E%3C%2FmxGraphModel%3E&lt;/span&gt;&lt;span style=&quot;text-align: left; text-wrap: nowrap; color: rgba(0, 0, 0, 0); font-family: monospace; font-size: 0px;&quot;&gt;%3CmxGraphModel%3E%3Croot%3E%3CmxCell%20id%3D%220%22%2F%3E%3CmxCell%20id%3D%221%22%20parent%3D%220%22%2F%3E%3CmxCell%20id%3D%222%22%20value%3D%22%22%20style%3D%22shape%3Dimage%3BverticalLabelPosition%3Dbottom%3BlabelBackgroundColor%3Ddefault%3BverticalAlign%3Dtop%3Baspect%3Dfixed%3BimageAspect%3D0%3Bimage%3Dhttps%3A%2F%2Fupload.wikimedia.org%2Fwikipedia%2Fcommons%2Fthumb%2Fc%2Fc3%2FPython-logo-notext.svg%2F1869px-Python-logo-notext.svg.png%3B%22%20vertex%3D%221%22%20parent%3D%221%22%3E%3CmxGeometry%20x%3D%2270%22%20y%3D%22214.04000000000002%22%20width%3D%2220%22%20height%3D%2221.92%22%20as%3D%22geometry%22%2F%3E%3C%2FmxCell%3E%3C%2Froot%3E%3C%2FmxGraphModel&lt;/span&gt;&lt;span style=&quot;text-align: left; font-size: 15px;&quot;&gt;run_arcface.py&lt;/span&gt;" style="text;html=1;align=center;verticalAlign=middle;whiteSpace=wrap;rounded=0;" parent="eA9wci_QhcoB31TBnbEu-50" vertex="1">
          <mxGeometry x="40" width="60" height="30" as="geometry" />
        </mxCell>
        <mxCell id="eA9wci_QhcoB31TBnbEu-99" style="edgeStyle=orthogonalEdgeStyle;rounded=0;orthogonalLoop=1;jettySize=auto;html=1;" parent="1" source="eA9wci_QhcoB31TBnbEu-59" target="eA9wci_QhcoB31TBnbEu-89" edge="1">
          <mxGeometry relative="1" as="geometry" />
        </mxCell>
        <mxCell id="eA9wci_QhcoB31TBnbEu-98" style="edgeStyle=orthogonalEdgeStyle;rounded=0;orthogonalLoop=1;jettySize=auto;html=1;" parent="1" source="eA9wci_QhcoB31TBnbEu-65" target="eA9wci_QhcoB31TBnbEu-59" edge="1">
          <mxGeometry relative="1" as="geometry" />
        </mxCell>
        <mxCell id="eA9wci_QhcoB31TBnbEu-96" value="" style="group" parent="1" vertex="1" connectable="0">
          <mxGeometry x="525" y="290" width="220" height="140" as="geometry" />
        </mxCell>
        <mxCell id="eA9wci_QhcoB31TBnbEu-67" value="" style="group;align=left;" parent="eA9wci_QhcoB31TBnbEu-96" vertex="1" connectable="0">
          <mxGeometry y="30" width="110" height="30" as="geometry" />
        </mxCell>
        <mxCell id="eA9wci_QhcoB31TBnbEu-68" value="" style="group" parent="eA9wci_QhcoB31TBnbEu-67" vertex="1" connectable="0">
          <mxGeometry x="2" width="110" height="30" as="geometry" />
        </mxCell>
        <mxCell id="eA9wci_QhcoB31TBnbEu-69" value="" style="shape=image;verticalLabelPosition=bottom;labelBackgroundColor=default;verticalAlign=top;aspect=fixed;imageAspect=0;image=https://upload.wikimedia.org/wikipedia/commons/thumb/c/c3/Python-logo-notext.svg/1869px-Python-logo-notext.svg.png;" parent="eA9wci_QhcoB31TBnbEu-68" vertex="1">
          <mxGeometry y="8.079999999999984" width="20" height="21.92" as="geometry" />
        </mxCell>
        <mxCell id="eA9wci_QhcoB31TBnbEu-70" value="&lt;span style=&quot;text-align: left; text-wrap: nowrap; color: rgba(0, 0, 0, 0); font-family: monospace; font-size: 0px;&quot;&gt;%3CmxGraphModel%3E%3Croot%3E%3CmxCell%20id%3D%220%22%2F%3E%3CmxCell%20id%3D%221%22%20parent%3D%220%22%2F%3E%3CmxCell%20id%3D%222%22%20value%3D%22%22%20style%3D%22shape%3Dimage%3BverticalLabelPosition%3Dbottom%3BlabelBackgroundColor%3Ddefault%3BverticalAlign%3Dtop%3Baspect%3Dfixed%3BimageAspect%3D0%3Bimage%3Dhttps%3A%2F%2Fupload.wikimedia.org%2Fwikipedia%2Fcommons%2Fthumb%2Fc%2Fc3%2FPython-logo-notext.svg%2F1869px-Python-logo-notext.svg.png%3B%22%20vertex%3D%221%22%20parent%3D%221%22%3E%3CmxGeometry%20x%3D%2270%22%20y%3D%22214.04000000000002%22%20width%3D%2220%22%20height%3D%2221.92%22%20as%3D%22geometry%22%2F%3E%3C%2FmxCell%3E%3C%2Froot%3E%3C%2FmxGraphModel%3E&lt;/span&gt;&lt;span style=&quot;text-align: left; text-wrap: nowrap; color: rgba(0, 0, 0, 0); font-family: monospace; font-size: 0px;&quot;&gt;%3CmxGraphModel%3E%3Croot%3E%3CmxCell%20id%3D%220%22%2F%3E%3CmxCell%20id%3D%221%22%20parent%3D%220%22%2F%3E%3CmxCell%20id%3D%222%22%20value%3D%22%22%20style%3D%22shape%3Dimage%3BverticalLabelPosition%3Dbottom%3BlabelBackgroundColor%3Ddefault%3BverticalAlign%3Dtop%3Baspect%3Dfixed%3BimageAspect%3D0%3Bimage%3Dhttps%3A%2F%2Fupload.wikimedia.org%2Fwikipedia%2Fcommons%2Fthumb%2Fc%2Fc3%2FPython-logo-notext.svg%2F1869px-Python-logo-notext.svg.png%3B%22%20vertex%3D%221%22%20parent%3D%221%22%3E%3CmxGeometry%20x%3D%2270%22%20y%3D%22214.04000000000002%22%20width%3D%2220%22%20height%3D%2221.92%22%20as%3D%22geometry%22%2F%3E%3C%2FmxCell%3E%3C%2Froot%3E%3C%2FmxGraphModel%&lt;/span&gt;&lt;span style=&quot;text-align: left;&quot;&gt;&lt;span style=&quot;font-size: 15px;&quot;&gt;enrich_images_features.py&lt;/span&gt;&lt;/span&gt;" style="text;html=1;align=center;verticalAlign=middle;whiteSpace=wrap;rounded=0;" parent="eA9wci_QhcoB31TBnbEu-68" vertex="1">
          <mxGeometry x="80" width="60" height="30" as="geometry" />
        </mxCell>
        <mxCell id="eA9wci_QhcoB31TBnbEu-71" value="&lt;span style=&quot;font-size: 15px;&quot;&gt;5. Enriching images&lt;/span&gt;" style="swimlane;whiteSpace=wrap;html=1;startSize=23;" parent="eA9wci_QhcoB31TBnbEu-96" vertex="1">
          <mxGeometry width="220" height="140" as="geometry" />
        </mxCell>
        <mxCell id="eA9wci_QhcoB31TBnbEu-72" value="&lt;div&gt;&lt;div&gt;--df_parquet&lt;/div&gt;&lt;div&gt;--img_file_path&lt;/div&gt;&lt;/div&gt;&lt;div&gt;&lt;br&gt;&lt;/div&gt;&lt;div&gt;&lt;span style=&quot;background-color: initial;&quot;&gt;Update&amp;nbsp;&lt;/span&gt;df_dataset.parquet&lt;/div&gt;" style="text;html=1;align=left;verticalAlign=top;whiteSpace=wrap;rounded=0;" parent="eA9wci_QhcoB31TBnbEu-71" vertex="1">
          <mxGeometry x="5" y="70" width="190" height="80" as="geometry" />
        </mxCell>
        <mxCell id="eA9wci_QhcoB31TBnbEu-100" style="edgeStyle=orthogonalEdgeStyle;rounded=0;orthogonalLoop=1;jettySize=auto;html=1;" parent="1" source="eA9wci_QhcoB31TBnbEu-71" target="eA9wci_QhcoB31TBnbEu-89" edge="1">
          <mxGeometry relative="1" as="geometry" />
        </mxCell>
        <mxCell id="eA9wci_QhcoB31TBnbEu-101" value="" style="group" parent="1" vertex="1" connectable="0">
          <mxGeometry x="267" y="20" width="195" height="160" as="geometry" />
        </mxCell>
        <mxCell id="eA9wci_QhcoB31TBnbEu-42" value="" style="group" parent="eA9wci_QhcoB31TBnbEu-101" vertex="1" connectable="0">
          <mxGeometry x="20" y="30" width="110" height="30" as="geometry" />
        </mxCell>
        <mxCell id="eA9wci_QhcoB31TBnbEu-43" value="" style="group" parent="eA9wci_QhcoB31TBnbEu-42" vertex="1" connectable="0">
          <mxGeometry width="110" height="30" as="geometry" />
        </mxCell>
        <mxCell id="eA9wci_QhcoB31TBnbEu-44" value="" style="shape=image;verticalLabelPosition=bottom;labelBackgroundColor=default;verticalAlign=top;aspect=fixed;imageAspect=0;image=https://upload.wikimedia.org/wikipedia/commons/thumb/c/c3/Python-logo-notext.svg/1869px-Python-logo-notext.svg.png;" parent="eA9wci_QhcoB31TBnbEu-43" vertex="1">
          <mxGeometry y="8.079999999999984" width="20" height="21.92" as="geometry" />
        </mxCell>
        <mxCell id="eA9wci_QhcoB31TBnbEu-45" value="&lt;span style=&quot;text-align: left; text-wrap: nowrap; color: rgba(0, 0, 0, 0); font-family: monospace; font-size: 0px;&quot;&gt;%3CmxGraphModel%3E%3Croot%3E%3CmxCell%20id%3D%220%22%2F%3E%3CmxCell%20id%3D%221%22%20parent%3D%220%22%2F%3E%3CmxCell%20id%3D%222%22%20value%3D%22%22%20style%3D%22shape%3Dimage%3BverticalLabelPosition%3Dbottom%3BlabelBackgroundColor%3Ddefault%3BverticalAlign%3Dtop%3Baspect%3Dfixed%3BimageAspect%3D0%3Bimage%3Dhttps%3A%2F%2Fupload.wikimedia.org%2Fwikipedia%2Fcommons%2Fthumb%2Fc%2Fc3%2FPython-logo-notext.svg%2F1869px-Python-logo-notext.svg.png%3B%22%20vertex%3D%221%22%20parent%3D%221%22%3E%3CmxGeometry%20x%3D%2270%22%20y%3D%22214.04000000000002%22%20width%3D%2220%22%20height%3D%2221.92%22%20as%3D%22geometry%22%2F%3E%3C%2FmxCell%3E%3C%2Froot%3E%3C%2FmxGraphModel%3E&lt;/span&gt;&lt;span style=&quot;text-align: left; text-wrap: nowrap; color: rgba(0, 0, 0, 0); font-family: monospace; font-size: 0px;&quot;&gt;%3CmxGraphModel%3E%3Croot%3E%3CmxCell%20id%3D%220%22%2F%3E%3CmxCell%20id%3D%221%22%20parent%3D%220%22%2F%3E%3CmxCell%20id%3D%222%22%20value%3D%22%22%20style%3D%22shape%3Dimage%3BverticalLabelPosition%3Dbottom%3BlabelBackgroundColor%3Ddefault%3BverticalAlign%3Dtop%3Baspect%3Dfixed%3BimageAspect%3D0%3Bimage%3Dhttps%3A%2F%2Fupload.wikimedia.org%2Fwikipedia%2Fcommons%2Fthumb%2Fc%2Fc3%2FPython-logo-notext.svg%2F1869px-Python-logo-notext.svg.png%3B%22%20vertex%3D%221%22%20parent%3D%221%22%3E%3CmxGeometry%20x%3D%2270%22%20y%3D%22214.04000000000002%22%20width%3D%2220%22%20height%3D%2221.92%22%20as%3D%22geometry%22%2F%3E%3C%2FmxCell%3E%3C%2Froot%3E%3C%2FmxGraphModel%&lt;/span&gt;&lt;span style=&quot;text-align: left; font-size: 15px;&quot;&gt;detection.py&lt;/span&gt;" style="text;html=1;align=center;verticalAlign=middle;whiteSpace=wrap;rounded=0;" parent="eA9wci_QhcoB31TBnbEu-43" vertex="1">
          <mxGeometry x="40" width="60" height="30" as="geometry" />
        </mxCell>
        <mxCell id="eA9wci_QhcoB31TBnbEu-46" value="&lt;span style=&quot;font-size: 15px;&quot;&gt;2. Run detection&lt;/span&gt;" style="swimlane;whiteSpace=wrap;html=1;startSize=23;" parent="eA9wci_QhcoB31TBnbEu-101" vertex="1">
          <mxGeometry width="195" height="160" as="geometry" />
        </mxCell>
        <mxCell id="eA9wci_QhcoB31TBnbEu-47" value="&lt;div&gt;&lt;div&gt;--dataset_name&lt;/div&gt;&lt;div&gt;--path_model&lt;/div&gt;&lt;/div&gt;&lt;div&gt;&lt;br&gt;&lt;/div&gt;&lt;div&gt;Creates&amp;nbsp;detection_retina_{*}.npz&lt;/div&gt;&lt;div&gt;&lt;span style=&quot;background-color: initial;&quot;&gt;Update&amp;nbsp;&lt;/span&gt;df_dataset.parquet&lt;/div&gt;" style="text;html=1;align=left;verticalAlign=top;whiteSpace=wrap;rounded=0;" parent="eA9wci_QhcoB31TBnbEu-46" vertex="1">
          <mxGeometry x="5" y="70" width="190" height="120" as="geometry" />
        </mxCell>
        <mxCell id="eA9wci_QhcoB31TBnbEu-102" value="" style="group" parent="1" vertex="1" connectable="0">
          <mxGeometry x="810" y="20" width="220" height="160" as="geometry" />
        </mxCell>
        <mxCell id="eA9wci_QhcoB31TBnbEu-61" value="" style="group" parent="eA9wci_QhcoB31TBnbEu-102" vertex="1" connectable="0">
          <mxGeometry x="20" y="30" width="110" height="30" as="geometry" />
        </mxCell>
        <mxCell id="eA9wci_QhcoB31TBnbEu-62" value="" style="group" parent="eA9wci_QhcoB31TBnbEu-61" vertex="1" connectable="0">
          <mxGeometry width="110" height="30" as="geometry" />
        </mxCell>
        <mxCell id="eA9wci_QhcoB31TBnbEu-64" value="&lt;span style=&quot;text-align: left; text-wrap: nowrap; color: rgba(0, 0, 0, 0); font-family: monospace; font-size: 0px;&quot;&gt;%3CmxGraphModel%3E%3Croot%3E%3CmxCell%20id%3D%220%22%2F%3E%3CmxCell%20id%3D%221%22%20parent%3D%220%22%2F%3E%3CmxCell%20id%3D%222%22%20value%3D%22%22%20style%3D%22shape%3Dimage%3BverticalLabelPosition%3Dbottom%3BlabelBackgroundColor%3Ddefault%3BverticalAlign%3Dtop%3Baspect%3Dfixed%3BimageAspect%3D0%3Bimage%3Dhttps%3A%2F%2Fupload.wikimedia.org%2Fwikipedia%2Fcommons%2Fthumb%2Fc%2Fc3%2FPython-logo-notext.svg%2F1869px-Python-logo-notext.svg.png%3B%22%20vertex%3D%221%22%20parent%3D%221%22%3E%3CmxGeometry%20x%3D%2270%22%20y%3D%22214.04000000000002%22%20width%3D%2220%22%20height%3D%2221.92%22%20as%3D%22geometry%22%2F%3E%3C%2FmxCell%3E%3C%2Froot%3E%3C%2FmxGraphModel%3E&lt;/span&gt;&lt;span style=&quot;text-align: left; text-wrap: nowrap; color: rgba(0, 0, 0, 0); font-family: monospace; font-size: 0px;&quot;&gt;%3CmxGraphModel%3E%3Croot%3E%3CmxCell%20id%3D%220%22%2F%3E%3CmxCell%20id%3D%221%22%20parent%3D%220%22%2F%3E%3CmxCell%20id%3D%222%22%20value%3D%22%22%20style%3D%22shape%3Dimage%3BverticalLabelPosition%3Dbottom%3BlabelBackgroundColor%3Ddefault%3BverticalAlign%3Dtop%3Baspect%3Dfixed%3BimageAspect%3D0%3Bimage%3Dhttps%3A%2F%2Fupload.wikimedia.org%2Fwikipedia%2Fcommons%2Fthumb%2Fc%2Fc3%2FPython-logo-notext.svg%2F1869px-Python-logo-notext.svg.png%3B%22%20vertex%3D%221%22%20parent%3D%221%22%3E%3CmxGeometry%20x%3D%2270%22%20y%3D%22214.04000000000002%22%20width%3D%2220%22%20height%3D%2221.92%22%20as%3D%22geometry%22%2F%3E%3C%2FmxCell%3E%3C%2Froot%3E%3C%2FmxGraphModel%&lt;/span&gt;&lt;span style=&quot;text-align: left;&quot;&gt;&lt;span style=&quot;font-size: 15px;&quot;&gt;evaluate_embeddings.ipynb&lt;/span&gt;&lt;/span&gt;" style="text;html=1;align=center;verticalAlign=middle;whiteSpace=wrap;rounded=0;" parent="eA9wci_QhcoB31TBnbEu-62" vertex="1">
          <mxGeometry x="65" y="11" width="60" height="30" as="geometry" />
        </mxCell>
        <mxCell id="eA9wci_QhcoB31TBnbEu-65" value="&lt;span style=&quot;font-size: 15px;&quot;&gt;4. Evaluate quality of embeddings (optional)&lt;/span&gt;" style="swimlane;whiteSpace=wrap;html=1;startSize=40;" parent="eA9wci_QhcoB31TBnbEu-102" vertex="1">
          <mxGeometry width="220" height="160" as="geometry" />
        </mxCell>
        <mxCell id="eA9wci_QhcoB31TBnbEu-66" value="&lt;div&gt;&lt;div&gt;df_dataset.parquet&lt;br&gt;&lt;/div&gt;&lt;/div&gt;&lt;div&gt;embeddings_retina_{model}.npz&lt;br&gt;&lt;/div&gt;" style="text;html=1;align=left;verticalAlign=top;whiteSpace=wrap;rounded=0;" parent="eA9wci_QhcoB31TBnbEu-65" vertex="1">
          <mxGeometry x="5" y="70" width="190" height="120" as="geometry" />
        </mxCell>
        <mxCell id="eA9wci_QhcoB31TBnbEu-84" value="" style="shape=image;verticalLabelPosition=bottom;labelBackgroundColor=default;verticalAlign=top;aspect=fixed;imageAspect=0;image=https://www.svgrepo.com/show/373718/jupyter.svg;" parent="eA9wci_QhcoB31TBnbEu-65" vertex="1">
          <mxGeometry y="50" width="20" height="20" as="geometry" />
        </mxCell>
        <mxCell id="eA9wci_QhcoB31TBnbEu-103" value="" style="group" parent="1" vertex="1" connectable="0">
          <mxGeometry x="1080" y="20" width="195" height="180" as="geometry" />
        </mxCell>
        <mxCell id="eA9wci_QhcoB31TBnbEu-55" value="" style="group" parent="eA9wci_QhcoB31TBnbEu-103" vertex="1" connectable="0">
          <mxGeometry x="2" y="41" width="110" height="30" as="geometry" />
        </mxCell>
        <mxCell id="eA9wci_QhcoB31TBnbEu-56" value="" style="group" parent="eA9wci_QhcoB31TBnbEu-55" vertex="1" connectable="0">
          <mxGeometry width="110" height="30" as="geometry" />
        </mxCell>
        <mxCell id="eA9wci_QhcoB31TBnbEu-57" value="" style="shape=image;verticalLabelPosition=bottom;labelBackgroundColor=default;verticalAlign=top;aspect=fixed;imageAspect=0;image=https://upload.wikimedia.org/wikipedia/commons/thumb/c/c3/Python-logo-notext.svg/1869px-Python-logo-notext.svg.png;" parent="eA9wci_QhcoB31TBnbEu-56" vertex="1">
          <mxGeometry y="8.079999999999984" width="20" height="21.92" as="geometry" />
        </mxCell>
        <mxCell id="eA9wci_QhcoB31TBnbEu-58" value="&lt;span style=&quot;text-wrap: nowrap; color: rgba(0, 0, 0, 0); font-family: monospace; font-size: 0px;&quot;&gt;%3CmxGraphModel%3E%3Croot%3E%3CmxCell%20id%3D%220%22%2F%3E%3CmxCell%20id%3D%221%22%20parent%3D%220%22%2F%3E%3CmxCell%20id%3D%222%22%20value%3D%22%22%20style%3D%22shape%3Dimage%3BverticalLabelPosition%3Dbottom%3BlabelBackgroundColor%3Ddefault%3BverticalAlign%3Dtop%3Baspect%3Dfixed%3BimageAspect%3D0%3Bimage%3Dhttps%3A%2F%2Fupload.wikimedia.org%2Fwikipedia%2Fcommons%2Fthumb%2Fc%2Fc3%2FPython-logo-notext.svg%2F1869px-Python-logo-notext.svg.png%3B%22%20vertex%3D%221%22%20parent%3D%221%22%3E%3CmxGeometry%20x%3D%2270%22%20y%3D%22214.04000000000002%22%20width%3D%2220%22%20height%3D%2221.92%22%20as%3D%22geometry%22%2F%3E%3C%2FmxCell%3E%3C%2Froot%3E%3C%2FmxGraphModel%3E&lt;/span&gt;&lt;span style=&quot;text-wrap: nowrap; color: rgba(0, 0, 0, 0); font-family: monospace; font-size: 0px;&quot;&gt;%3CmxGraphModel%3E%3Croot%3E%3CmxCell%20id%3D%220%22%2F%3E%3CmxCell%20id%3D%221%22%20parent%3D%220%22%2F%3E%3CmxCell%20id%3D%222%22%20value%3D%22%22%20style%3D%22shape%3Dimage%3BverticalLabelPosition%3Dbottom%3BlabelBackgroundColor%3Ddefault%3BverticalAlign%3Dtop%3Baspect%3Dfixed%3BimageAspect%3D0%3Bimage%3Dhttps%3A%2F%2Fupload.wikimedia.org%2Fwikipedia%2Fcommons%2Fthumb%2Fc%2Fc3%2FPython-logo-notext.svg%2F1869px-Python-logo-notext.svg.png%3B%22%20vertex%3D%221%22%20parent%3D%221%22%3E%3CmxGeometry%20x%3D%2270%22%20y%3D%22214.04000000000002%22%20width%3D%2220%22%20height%3D%2221.92%22%20as%3D%22geometry%22%2F%3E%3C%2FmxCell%3E%3C%2Froot%3E%3C%2FmxGraphModel%&lt;/span&gt;&lt;span style=&quot;font-size: 15px;&quot;&gt;postprocessing.py&lt;/span&gt;" style="text;html=1;align=left;verticalAlign=middle;whiteSpace=wrap;rounded=0;" parent="eA9wci_QhcoB31TBnbEu-56" vertex="1">
          <mxGeometry x="21" width="60" height="30" as="geometry" />
        </mxCell>
        <mxCell id="eA9wci_QhcoB31TBnbEu-59" value="&lt;span style=&quot;font-size: 15px;&quot;&gt;6. Postprocessing for data quality&lt;/span&gt;" style="swimlane;whiteSpace=wrap;html=1;startSize=40;" parent="eA9wci_QhcoB31TBnbEu-103" vertex="1">
          <mxGeometry width="195" height="180" as="geometry" />
        </mxCell>
        <mxCell id="eA9wci_QhcoB31TBnbEu-60" value="&lt;div&gt;&lt;div&gt;--df_parquet&lt;/div&gt;&lt;div&gt;--embeddings_path&lt;/div&gt;&lt;div&gt;--min_photos_by_id&lt;/div&gt;&lt;div&gt;--geom_n_neighbors&lt;/div&gt;&lt;/div&gt;&lt;div&gt;&lt;br&gt;&lt;/div&gt;&lt;div&gt;&lt;span style=&quot;background-color: initial;&quot;&gt;Update&amp;nbsp;&lt;/span&gt;df_dataset.parquet&lt;/div&gt;" style="text;html=1;align=left;verticalAlign=top;whiteSpace=wrap;rounded=0;" parent="eA9wci_QhcoB31TBnbEu-59" vertex="1">
          <mxGeometry x="5" y="70" width="190" height="120" as="geometry" />
        </mxCell>
        <mxCell id="eA9wci_QhcoB31TBnbEu-104" value="" style="group" parent="1" vertex="1" connectable="0">
          <mxGeometry x="1310" y="20" width="231" height="190" as="geometry" />
        </mxCell>
        <mxCell id="eA9wci_QhcoB31TBnbEu-89" value="&lt;span style=&quot;font-size: 15px;&quot;&gt;7. Postprocessing metadata&lt;/span&gt;" style="swimlane;whiteSpace=wrap;html=1;startSize=40;" parent="eA9wci_QhcoB31TBnbEu-104" vertex="1">
          <mxGeometry width="231" height="190" as="geometry" />
        </mxCell>
        <mxCell id="eA9wci_QhcoB31TBnbEu-90" value="&lt;div&gt;&lt;div&gt;&lt;b&gt;&lt;font color=&quot;#00cc00&quot;&gt;from&lt;/font&gt;&lt;/b&gt; src_face.face &lt;b&gt;&lt;font color=&quot;#00cc00&quot;&gt;import&lt;/font&gt;&lt;/b&gt; utils&lt;/div&gt;&lt;/div&gt;&lt;div&gt;&lt;br&gt;&lt;/div&gt;&lt;div&gt;&lt;br&gt;&lt;/div&gt;&lt;div&gt;&lt;br&gt;&lt;/div&gt;&lt;div&gt;&lt;span style=&quot;background-color: initial;&quot;&gt;Creates dataframes of summaries at attributes and identities level from df_dataset or a subset of it (ex: high quality subset)&lt;/span&gt;&lt;/div&gt;" style="text;html=1;align=left;verticalAlign=top;whiteSpace=wrap;rounded=0;" parent="eA9wci_QhcoB31TBnbEu-89" vertex="1">
          <mxGeometry x="5" y="40" width="225" height="150" as="geometry" />
        </mxCell>
        <mxCell id="eA9wci_QhcoB31TBnbEu-85" value="" style="group" parent="eA9wci_QhcoB31TBnbEu-89" vertex="1" connectable="0">
          <mxGeometry x="50" y="60" width="110" height="30" as="geometry" />
        </mxCell>
        <mxCell id="eA9wci_QhcoB31TBnbEu-86" value="" style="group" parent="eA9wci_QhcoB31TBnbEu-85" vertex="1" connectable="0">
          <mxGeometry width="110" height="30" as="geometry" />
        </mxCell>
        <mxCell id="eA9wci_QhcoB31TBnbEu-87" value="" style="shape=image;verticalLabelPosition=bottom;labelBackgroundColor=default;verticalAlign=top;aspect=fixed;imageAspect=0;image=https://upload.wikimedia.org/wikipedia/commons/thumb/c/c3/Python-logo-notext.svg/1869px-Python-logo-notext.svg.png;" parent="eA9wci_QhcoB31TBnbEu-86" vertex="1">
          <mxGeometry y="8.079999999999984" width="20" height="21.92" as="geometry" />
        </mxCell>
        <mxCell id="eA9wci_QhcoB31TBnbEu-88" value="&lt;span style=&quot;text-wrap: nowrap; color: rgba(0, 0, 0, 0); font-family: monospace; font-size: 0px;&quot;&gt;u%3CmxGraphModel%3E%3Croot%3E%3CmxCell%20id%3D%220%22%2F%3E%3CmxCell%20id%3D%221%22%20parent%3D%220%22%2F%3E%3CmxCell%20id%3D%222%22%20value%3D%22%22%20style%3D%22shape%3Dimage%3BverticalLabelPosition%3Dbottom%3BlabelBackgroundColor%3Ddefault%3BverticalAlign%3Dtop%3Baspect%3Dfixed%3BimageAspect%3D0%3Bimage%3Dhttps%3A%2F%2Fupload.wikimedia.org%2Fwikipedia%2Fcommons%2Fthumb%2Fc%2Fc3%2FPython-logo-notext.svg%2F1869px-Python-logo-notext.svg.png%3B%22%20vertex%3D%221%22%20parent%3D%221%22%3E%3CmxGeometry%20x%3D%2270%22%20y%3D%22214.04000000000002%22%20width%3D%2220%22%20height%3D%2221.92%22%20as%3D%22geometry%22%2F%3E%3C%2FmxCell%3E%3C%2Froot%3E%3C%2FmxGraphModel%3E&lt;/span&gt;&lt;span style=&quot;text-wrap: nowrap; color: rgba(0, 0, 0, 0); font-family: monospace; font-size: 0px;&quot;&gt;%3CmxGraphModel%3E%3Croot%3E%3CmxCell%20id%3D%220%22%2F%3E%3CmxCell%20id%3D%221%22%20parent%3D%220%22%2F%3E%3CmxCell%20id%3D%222%22%20value%3D%22%22%20style%3D%22shape%3Dimage%3BverticalLabelPosition%3Dbottom%3BlabelBackgroundColor%3Ddefault%3BverticalAlign%3Dtop%3Baspect%3Dfixed%3BimageAspect%3D0%3Bimage%3Dhttps%3A%2F%2Fupload.wikimedia.org%2Fwikipedia%2Fcommons%2Fthumb%2Fc%2Fc3%2FPython-logo-notext.svg%2F1869px-Python-logo-notext.svg.png%3B%22%20vertex%3D%221%22%20parent%3D%221%22%3E%3CmxGeometry%20x%3D%2270%22%20y%3D%22214.04000000000002%22%20width%3D%2220%22%20height%3D%2221.92%22%20as%3D%22geometry%22%2F%3E%3C%2FmxCell%3E%3C%2Froot%3E%3C%utils&lt;/span&gt;&lt;span style=&quot;font-size: 15px;&quot;&gt;utils.py&lt;/span&gt;" style="text;html=1;align=left;verticalAlign=middle;whiteSpace=wrap;rounded=0;" parent="eA9wci_QhcoB31TBnbEu-86" vertex="1">
          <mxGeometry x="21" width="60" height="30" as="geometry" />
        </mxCell>
      </root>
    </mxGraphModel>
  </diagram>
</mxfile>
